<?xml version="1.0" encoding="UTF-8" standalone="no"?>
<!-- Created with Inkscape (http://www.inkscape.org/) -->

<svg
   width="135.45375mm"
   height="135.43445mm"
   viewBox="0 0 135.45375 135.43445"
   version="1.1"
   id="svg5"
   xml:space="preserve"
   xmlns="http://www.w3.org/2000/svg"
   xmlns:svg="http://www.w3.org/2000/svg"><defs
     id="defs2" /><g
     id="layer1"
     transform="translate(-255.71563,706.05515)"><path
       id="path805"
       style="fill:#fff5e9;fill-opacity:1;stroke-width:1"
       d="m 323.51212,-706.055 c -3.14248,-0.005 -6.26775,0.11617 -8.28322,0.3669 -15.74663,1.95898 -29.54526,8.85477 -40.60527,20.29179 -10.34845,10.70117 -16.6934,23.9353 -18.50998,38.60849 -0.53069,4.28663 -0.53069,12.62502 0,16.91163 1.90696,15.40322 8.86915,29.31722 20.13365,40.23785 5.2282,5.06861 10.96849,9.1366 17.13436,12.14293 7.54911,3.68077 14.24202,5.61049 23.31227,6.72052 2.41116,0.29509 12.27484,0.14 15.2554,-0.23978 14.76342,-1.88115 27.87814,-8.17398 38.5563,-18.50016 11.35854,-10.98412 18.28417,-24.76698 20.25458,-40.30865 0.54556,-4.30308 0.54556,-12.71395 0,-17.01705 -1.97071,-15.54395 -8.89436,-29.3229 -20.25458,-40.30865 -10.70119,-10.34845 -23.9358,-16.6934 -38.60901,-18.50998 -2.08265,-0.25785 -5.24202,-0.39039 -8.3845,-0.39584 z m -23.84196,42.43203 c 0.19992,-9.6e-4 0.41217,0.023 0.63666,0.0724 0.59178,0.12998 11.68075,6.9738 12.38115,7.64139 0.9435,0.89931 0.92865,2.42488 -0.0326,3.36466 -0.26494,0.25903 -3.04096,2.05823 -6.16862,3.9982 -4.87411,3.02323 -5.80064,3.53807 -6.48591,3.60392 -0.98446,0.0946 -1.75396,-0.26326 -2.1301,-0.99064 -0.153,-0.29587 -0.30917,-1.16251 -0.36484,-2.02158 -0.0535,-0.82711 -0.12852,-1.50379 -0.16639,-1.50379 -0.0379,0 -0.51902,0.22314 -1.06919,0.4961 -3.20817,1.59174 -5.42759,4.32588 -6.32623,7.79384 -0.35244,1.36015 -0.35269,4.10434 -5.1e-4,5.46065 1.01732,3.91785 4.01109,7.07665 7.93646,8.37468 1.17517,0.3886 1.23706,0.39111 12.48503,0.47904 11.01879,0.0861 11.32327,0.0973 12.06334,0.44132 1.79259,0.83328 2.77313,2.34995 2.76366,4.27519 -0.009,1.93187 -0.88555,3.36937 -2.59467,4.2571 l -0.75913,0.39429 -11.13575,0.0258 c -8.27498,0.0193 -11.50355,-0.0294 -12.56926,-0.18914 -8.54352,-1.28085 -15.26506,-7.44612 -17.38757,-15.94941 -0.50938,-2.04079 -0.63713,-6.24091 -0.25632,-8.42946 1.13605,-6.52899 5.2912,-12.2138 11.09545,-15.18047 1.42373,-0.72771 3.95688,-1.63806 5.40949,-1.94407 0.4333,-0.0913 0.46442,-0.15609 0.47129,-0.9803 0.0188,-2.25785 0.80511,-3.48293 2.20451,-3.48971 z m 30.63276,4.22559 c 1.67814,0.002 3.89691,0.0133 6.85281,0.0279 11.7746,0.0579 11.85495,0.0607 13.35784,0.45217 8.55782,2.22908 14.70804,8.99181 15.95923,17.5488 0.2917,1.99498 0.11812,6.10087 -0.33589,7.93802 -2.0068,8.12026 -8.01427,13.9481 -16.24966,15.76389 -0.43912,0.0968 -0.46434,0.15406 -0.47129,1.06919 -0.0118,1.54884 -0.23821,2.38741 -0.79633,2.94555 -0.5951,0.59508 -1.68583,0.7755 -2.48615,0.41135 -0.96227,-0.43784 -11.64278,-7.16792 -12.02511,-7.57732 -0.85952,-0.92037 -0.80783,-2.37839 0.11627,-3.28197 0.26597,-0.26007 3.04249,-2.06029 6.17017,-4.00027 4.8741,-3.02323 5.80063,-3.53806 6.48591,-3.60391 0.98195,-0.0943 1.75378,0.26321 2.127,0.98495 0.14562,0.28159 0.31002,1.15337 0.36535,1.93735 0.0554,0.78399 0.13169,1.42523 0.1695,1.42523 0.18475,0 2.15552,-1.05215 2.79466,-1.49189 1.3301,-0.91512 2.8736,-2.7272 3.62252,-4.25349 0.92689,-1.88899 1.24948,-3.2348 1.25419,-5.22966 0.0105,-4.54989 -2.54969,-8.58743 -6.69365,-10.55543 -2.44806,-1.16259 -2.03569,-1.12727 -14.42548,-1.23403 -11.09794,-0.0956 -11.22728,-0.10091 -11.90366,-0.46302 -0.9043,-0.48413 -1.6793,-1.2959 -2.13786,-2.23966 -0.45263,-0.93159 -0.49402,-2.78649 -0.0837,-3.75325 0.39773,-0.93695 1.54145,-2.07747 2.4939,-2.48719 0.63336,-0.27247 0.805,-0.34069 5.83944,-0.33331 z" /></g></svg>
