<?xml version="1.0" encoding="UTF-8" standalone="no"?>
<!-- Created with Inkscape (http://www.inkscape.org/) -->

<svg
   width="135.45369mm"
   height="135.43436mm"
   viewBox="0 0 135.45369 135.43436"
   version="1.1"
   id="svg5"
   xml:space="preserve"
   xmlns="http://www.w3.org/2000/svg"
   xmlns:svg="http://www.w3.org/2000/svg"><defs
     id="defs2" /><g
     id="layer1"
     transform="translate(-84.21738,706.05523)"><path
       style="fill:#fff5e9;fill-opacity:1;stroke-width:1"
       d="m 145.1957,-570.77512 c -9.07027,-1.11003 -15.76315,-3.03937 -23.31228,-6.72014 -6.16589,-3.00635 -11.90644,-7.07465 -17.13464,-12.14326 -11.264542,-10.92067 -18.226422,-24.83436 -20.133382,-40.2376 -0.53069,-4.28663 -0.53069,-12.62517 0,-16.9118 1.81658,-14.67323 8.16134,-27.90743 18.509812,-38.60864 11.06003,-11.43704 24.85855,-18.33253 40.60522,-20.29151 4.03093,-0.50147 12.50274,-0.48679 16.66804,0.0289 14.67323,1.81658 27.90743,8.16134 38.60864,18.50981 11.36024,10.98577 18.28408,24.76483 20.25479,40.30882 0.54556,4.3031 0.54556,12.71398 0,17.01708 -1.97041,15.54169 -8.89623,29.32468 -20.25479,40.30882 -10.67818,10.3262 -23.79256,16.61872 -38.556,18.49989 -2.98056,0.37978 -12.84425,0.53474 -15.25541,0.23965 z m 29.23645,-31.24817 c 4.71738,-1.60132 7.93578,-4.97442 9.17472,-9.61569 0.36181,-1.3554 0.45422,-2.92423 0.46684,-7.9255 l 0.0157,-6.23558 -0.70399,-1.06525 c -1.77879,-2.6916 -6.03621,-2.5442 -7.56686,0.26196 -0.38445,0.70482 -0.47904,1.83568 -0.59132,7.06949 -0.14344,6.68606 -0.20776,6.99757 -1.70114,8.2388 -1.18256,0.98288 -2.62886,1.0449 -22.37731,0.95952 -18.06158,-0.0781 -19.24002,-0.11164 -20.17031,-0.57413 -0.54341,-0.27015 -1.25778,-0.925 -1.5875,-1.45521 -0.56705,-0.91186 -0.60664,-1.30151 -0.73177,-7.20188 -0.13172,-6.21091 -0.13534,-6.24245 -0.83629,-7.30084 -1.72606,-2.6062 -5.59711,-2.60624 -7.32326,-7e-5 -0.69444,1.04848 -0.70521,1.13501 -0.79325,6.3748 -0.10936,6.50806 0.16443,8.52279 1.55202,11.42094 1.5521,3.24174 4.55339,5.85755 8.00185,6.97412 2.05238,0.66454 5.03184,0.75214 24.00517,0.7058 19.29526,-0.0471 19.46029,-0.052 21.16667,-0.63128 z m -26.27311,-71.05585 c -0.58085,0.93388 -0.58241,0.97415 -0.65629,16.87726 -0.0407,8.76763 -0.15401,15.94115 -0.25172,15.94115 -0.0977,0 -2.74328,-2.54755 -5.87906,-5.66122 -5.20262,-5.16595 -5.80558,-5.68236 -6.89204,-5.90281 -3.51885,-0.71398 -6.19973,2.07487 -5.28957,5.50263 0.27484,1.03508 1.37353,2.23659 9.74498,10.65701 5.18937,5.21973 9.96454,9.8334 10.61149,10.25261 1.41592,0.91747 3.00122,1.00767 4.45666,0.25359 0.53991,-0.27974 5.34662,-4.89341 10.68159,-10.25261 8.62028,-8.65943 9.7344,-9.87385 10.00956,-10.9106 0.53146,-2.00245 -0.2365,-4.02984 -1.91386,-5.05253 -1.12318,-0.68482 -3.08055,-0.69238 -4.37858,-0.0169 -0.53991,0.28095 -3.42243,2.96103 -6.4056,5.95574 l -5.42396,5.44493 -0.13229,-15.94377 c -0.12857,-15.49566 -0.17329,-15.96022 -0.68195,-16.99161 -1.22099,-2.47576 -5.72743,-3.07691 -7.59936,-0.15287 z"
       id="path740" /></g></svg>
