<?xml version="1.0" encoding="UTF-8" standalone="no"?>
<svg
   viewBox="0 0 600 600"
   version="1.1"
   id="svg4"
   sodipodi:docname="home.svg"
   xml:space="preserve"
   inkscape:version="1.2.2 (732a01da63, 2022-12-09)"
   xmlns:inkscape="http://www.inkscape.org/namespaces/inkscape"
   xmlns:sodipodi="http://sodipodi.sourceforge.net/DTD/sodipodi-0.dtd"
   xmlns="http://www.w3.org/2000/svg"
   xmlns:svg="http://www.w3.org/2000/svg"><defs
     id="defs8"><inkscape:path-effect
       effect="fillet_chamfer"
       id="path-effect1152"
       is_visible="true"
       lpeversion="1"
       nodesatellites_param="F,0,0,1,0,0,0,1 @ F,0,0,1,0,0,0,1 @ F,0,0,1,0,0,0,1 @ F,0,0,1,0,0,0,1 @ F,0,0,1,0,0,0,1 @ F,0,0,1,0,0,0,1 @ F,0,0,1,0,0,0,1 @ F,0,0,1,0,0,0,1 @ F,0,0,1,0,0,0,1 @ F,0,0,1,0,0,0,1 @ F,0,0,1,0,0,0,1 @ F,0,1,1,0,46.740957,0,1 @ F,0,0,1,0,0,0,1 @ F,0,0,1,0,0,0,1 @ F,0,0,1,0,0,0,1 @ F,0,0,1,0,46.740957,0,1 @ F,0,0,1,0,0,0,1 @ F,0,0,1,0,0,0,1 @ F,0,0,1,0,0,0,1 @ F,0,0,1,0,0,0,1 @ F,0,0,1,0,0,0,1 @ F,0,0,1,0,0,0,1 @ F,0,0,1,0,0,0,1 @ F,0,0,1,0,0,0,1 @ F,0,0,1,0,0,0,1 @ F,0,0,1,0,0,0,1"
       unit="px"
       method="auto"
       mode="F"
       radius="0"
       chamfer_steps="1"
       flexible="false"
       use_knot_distance="true"
       apply_no_radius="true"
       apply_with_radius="true"
       only_selected="false"
       hide_knots="false" /></defs><sodipodi:namedview
     id="namedview6"
     pagecolor="#ffffff"
     bordercolor="#666666"
     borderopacity="1.0"
     inkscape:showpageshadow="2"
     inkscape:pageopacity="0.0"
     inkscape:pagecheckerboard="0"
     inkscape:deskcolor="#d1d1d1"
     showgrid="false"
     inkscape:zoom="0.78666666"
     inkscape:cx="129.02542"
     inkscape:cy="290.4661"
     inkscape:window-width="1920"
     inkscape:window-height="991"
     inkscape:window-x="-9"
     inkscape:window-y="-9"
     inkscape:window-maximized="1"
     inkscape:current-layer="svg4" /><path
     id="path2"
     style="fill:#fff5e9;fill-opacity:1;stroke-width:0.844719"
     d="m 300.3125,65.222656 c -2.68396,-0.01056 -5.4144,0.111819 -8.19141,0.365235 -16.472,1.520492 -30.32482,8.531855 -42.0664,20.273437 C 192.86726,143.13322 135.59366,200.31991 78.40625,257.5918 c -16.894362,16.97883 -23.227991,37.33714 -19.595703,60.82031 4.814893,31.33904 33.619456,56.08984 65.380863,56.42773 3.12545,0 3.125,-4.5e-4 3.125,3.125 v 88.86524 c 0,2.78758 0.0845,5.6597 0.33789,8.44726 2.44967,23.31423 14.02266,40.54601 34.46484,51.86524 9.71426,5.40619 20.27258,7.60156 31.25391,7.60156 h 7.02076 a 46.740957,46.740957 135 0 0 46.74096,-46.74096 v -82.93091 c 0,-29.2056 23.5112,-52.7168 52.71679,-52.7168 29.2056,0 52.71875,23.5112 52.71875,52.7168 v 82.93091 a 46.740957,46.740957 45 0 0 46.74096,46.74096 h 5.91725 c 4.64595,0 9.29204,-0.33741 13.85351,-1.09766 29.64961,-4.98383 53.04786,-32.1839 53.2168,-62.25586 0.16894,-31.25457 0.0845,-62.5091 0,-93.76367 0,-2.02732 0.3384,-2.78659 2.61914,-2.87109 20.10429,-0.42236 36.9142,-8.27994 50.0918,-23.40039 18.41486,-21.03348 22.04723,-50.85035 9.46093,-75.76953 -3.71676,-7.34906 -8.78472,-13.68512 -14.61328,-19.51367 C 502.62517,238.84001 485.30891,221.60724 467.99219,204.375 428.45938,164.92666 388.92637,125.47812 349.5625,85.945312 335.59297,71.901873 319.10022,65.296569 300.3125,65.222656 Z"
     inkscape:path-effect="#path-effect1152"
     inkscape:original-d="m 300.3125,65.222656 c -2.68396,-0.01056 -5.4144,0.111819 -8.19141,0.365235 -16.472,1.520492 -30.32482,8.531855 -42.0664,20.273437 C 192.86726,143.13322 135.59366,200.31991 78.40625,257.5918 c -16.894362,16.97883 -23.227991,37.33714 -19.595703,60.82031 4.814893,31.33904 33.619456,56.08984 65.380863,56.42773 3.12545,0 3.125,-4.5e-4 3.125,3.125 v 88.86524 c 0,2.78758 0.0845,5.6597 0.33789,8.44726 2.44967,23.31423 14.02266,40.54601 34.46484,51.86524 9.71426,5.40619 20.27258,7.60156 31.25391,7.60156 h 53.76172 V 405.07227 c 0,-29.2056 23.5112,-52.7168 52.71679,-52.7168 29.2056,0 52.71875,23.5112 52.71875,52.7168 v 129.67187 h 52.65821 c 4.64595,0 9.29204,-0.33741 13.85351,-1.09766 29.64961,-4.98383 53.04786,-32.1839 53.2168,-62.25586 0.16894,-31.25457 0.0845,-62.5091 0,-93.76367 0,-2.02732 0.3384,-2.78659 2.61914,-2.87109 20.10429,-0.42236 36.9142,-8.27994 50.0918,-23.40039 18.41486,-21.03348 22.04723,-50.85035 9.46093,-75.76953 -3.71676,-7.34906 -8.78472,-13.68512 -14.61328,-19.51367 C 502.62517,238.84001 485.30891,221.60724 467.99219,204.375 428.45938,164.92666 388.92637,125.47812 349.5625,85.945312 335.59297,71.901873 319.10022,65.296569 300.3125,65.222656 Z" /></svg>
